{
    "asset" : {
        "generator" : "Khronos glTF Blender I/O v3.5.11",
        "version" : "2.0"
    },
    "scene" : 0,
    "scenes" : [
        {
            "name" : "Scene",
            "nodes" : [
                0
            ]
        }
    ],
    "nodes" : [
        {
            "mesh" : 0,
            "name" : "error",
            "rotation" : [
                0.5,
                0.5,
                -0.5,
                0.5
            ],
            "scale" : [
                1.2677001953125,
                1.2677001953125,
                1.2677001953125
            ],
            "translation" : [
                -5.9054694175720215,
                3.2536606788635254,
                0.6452027559280396
            ]
        }
    ],
    "materials" : [
        {
            "doubleSided" : true,
            "name" : "frame",
            "pbrMetallicRoughness" : {
                "baseColorFactor" : [
                    0.1574346274137497,
                    0.1574346274137497,
                    0.1574346274137497,
                    1
                ],
                "metallicFactor" : 0,
                "roughnessFactor" : 0.5
            }
        }
    ],
    "meshes" : [
        {
            "name" : "error",
            "primitives" : [
                {
                    "attributes" : {
                        "POSITION" : 0
                    },
                    "indices" : 1,
                    "material" : 0
                }
            ]
        }
    ],
    "accessors" : [
        {
            "bufferView" : 0,
            "componentType" : 5126,
            "count" : 4762,
            "max" : [
                1.8739633560180664,
                0.01113581657409668,
                0.9660630226135254
            ],
            "min" : [
                -1.3554350137710571,
                -0.01113581657409668,
                -0.6152286529541016
            ],
            "type" : "VEC3"
        },
        {
            "bufferView" : 1,
            "componentType" : 5123,
            "count" : 28320,
            "type" : "SCALAR"
        }
    ],
    "bufferViews" : [
        {
            "buffer" : 0,
            "byteLength" : 57144,
            "byteOffset" : 0,
            "target" : 34962
        },
        {
            "buffer" : 0,
            "byteLength" : 56640,
            "byteOffset" : 57144,
            "target" : 34963
        }
    ],
    "buffers" : [
        {
            "byteLength" : 113784,
            "uri" : "data:application/octet-stream;base64,"
        }
    ]
}
